<?xml version="1.0" standalone="no"?><!DOCTYPE svg PUBLIC "-//W3C//DTD SVG 1.1//EN" "http://www.w3.org/Graphics/SVG/1.1/DTD/svg11.dtd"><svg t="1666313229402" class="icon" viewBox="0 0 1024 1024" version="1.1" xmlns="http://www.w3.org/2000/svg" p-id="10784" xmlns:xlink="http://www.w3.org/1999/xlink" width="200" height="200"><path d="M674.56 634.026667a347.306667 347.306667 0 0 1-77.226667-8.106667 21.333333 21.333333 0 0 1-16.64-19.2A305.493333 305.493333 0 0 1 661.76 384c75.946667-76.373333 245.76-88.746667 253.013333-89.173333a21.76 21.76 0 0 1 16.64 6.4 20.906667 20.906667 0 0 1 5.973334 16.213333c0 7.253333-12.8 177.493333-88.746667 253.44a242.346667 242.346667 0 0 1-174.08 63.146667z m-51.626667-46.506667c38.826667 5.546667 136.533333 12.8 195.413334-46.08 49.066667-48.64 67.84-152.32 73.813333-200.533333-47.786667 6.4-151.466667 24.746667-200.533333 73.813333a264.106667 264.106667 0 0 0-68.693334 172.8z" p-id="10785"></path><path d="M601.173333 603.733333a397.226667 397.226667 0 0 1-128 271.36" fill="#FFFFFF" p-id="10786"></path><path d="M473.173333 896a21.76 21.76 0 0 1-15.786666-7.253333 20.906667 20.906667 0 0 1 0-29.866667 381.013333 381.013333 0 0 0 120.746666-256 21.333333 21.333333 0 0 1 21.333334-21.333333 23.466667 23.466667 0 0 1 21.333333 21.333333 416.853333 416.853333 0 0 1-134.826667 287.146667 21.333333 21.333333 0 0 1-12.8 5.973333z" p-id="10787"></path><path d="M601.6 615.68a13.226667 13.226667 0 0 1-5.546667 0 11.093333 11.093333 0 0 1-3.413333-14.933333 613.12 613.12 0 0 1 198.4-192 10.666667 10.666667 0 0 1 14.506667 4.266666 11.093333 11.093333 0 0 1-4.266667 14.506667 592.213333 592.213333 0 0 0-190.293333 184.746667 11.52 11.52 0 0 1-9.386667 3.413333z" p-id="10788"></path><path d="M486.826667 634.026667a369.92 369.92 0 0 1-264.533334-93.866667C106.24 424.106667 85.333333 161.28 85.333333 150.186667a20.906667 20.906667 0 0 1 5.973334-16.213334 20.053333 20.053333 0 0 1 17.92-5.973333c11.093333 0 273.493333 20.053333 389.546666 136.106667a466.346667 466.346667 0 0 1 123.733334 338.773333 20.906667 20.906667 0 0 1-16.213334 19.2 542.72 542.72 0 0 1-119.466666 11.946667z m114.346666-33.28z m-469.333333-426.666667c7.68 66.986667 35.84 251.733333 121.173333 337.066667 101.973333 102.4 274.773333 82.346667 327.68 73.386666A426.666667 426.666667 0 0 0 469.333333 293.546667C384 208.64 198.826667 180.48 131.413333 172.8z" p-id="10789"></path><path d="M601.173333 611.413333a11.093333 11.093333 0 0 1-8.96-4.693333 942.506667 942.506667 0 0 0-301.226666-291.84 10.666667 10.666667 0 0 1 10.666666-18.773333 981.333333 981.333333 0 0 1 308.906667 298.666666 11.52 11.52 0 0 1-3.413333 14.933334 14.933333 14.933333 0 0 1-5.973334 1.706666z" p-id="10790"></path></svg>